<?xml version="1.0" encoding="utf-8"?>
<!-- Generator: Adobe Illustrator 25.2.3, SVG Export Plug-In . SVG Version: 6.00 Build 0)  -->
<svg version="1.1" id="Capa_1" xmlns="http://www.w3.org/2000/svg" xmlns:xlink="http://www.w3.org/1999/xlink" x="0px" y="0px"
	 viewBox="0 0 400 120" style="enable-background:new 0 0 400 120;" xml:space="preserve">
<style type="text/css">
	.st0{fill-rule:evenodd;clip-rule:evenodd;fill:#E8E7E7;}
	.st1{fill-rule:evenodd;clip-rule:evenodd;fill:#FFFFFF;}
	.st2{fill-rule:evenodd;clip-rule:evenodd;fill:#E51E2A;}
	.st3{fill-rule:evenodd;clip-rule:evenodd;fill:#006B45;}
	.st4{fill:#006B45;}
	.st5{fill:#E8E7E7;}
	.st6{fill:#E51E2A;}
</style>
<g>
	<path class="st0" d="M52.04,100.78c-6.42,3.39-12.84,6.79-19.25,10.18c-1.49,0.79-3.24,0.5-4.41-0.7
		c-1.17-1.21-1.38-2.98-0.54-4.43l7.22-12.5L8.79,79.51c-1.25-0.66-1.98-1.87-1.98-3.29v-42.8c0-1.41,0.73-2.63,1.98-3.29
		L48.92,9.04c1.12-0.59,2.34-0.59,3.46,0L92.5,30.15c1.25,0.66,1.98,1.87,1.98,3.29v42.8c0,1.41-0.73,2.63-1.98,3.29l-40.12,21.11
		C52.26,100.68,52.15,100.73,52.04,100.78L52.04,100.78z"/>
	<path class="st1" d="M58.97,25.1v2.1l18.93,9.96c1.25,0.66,1.98,1.87,1.98,3.29c0,1.41-0.73,2.63-1.98,3.29l-18.93,9.96v2.1
		l24.37-12.82v-5.04L58.97,25.1L58.97,25.1z"/>
	<path class="st1" d="M42.31,55.78v-2.1l-18.93-9.96c-1.25-0.66-1.98-1.87-1.98-3.29c0-1.41,0.73-2.63,1.98-3.29l18.93-9.96v-2.1
		L17.95,37.92v5.04L42.31,55.78z"/>
	<polygon class="st2" points="87.77,35.67 69.57,26.1 55.98,18.95 55.98,29.44 76.89,40.44 55.98,51.44 55.98,61.93 69.57,54.78 
		87.77,45.2 	"/>
	<polygon class="st3" points="46.74,29.44 46.74,18.95 33.15,26.1 14.95,35.67 14.95,45.2 33.15,54.78 46.74,61.93 46.74,51.44 
		25.83,40.44 	"/>
	<g>
		<path class="st4" d="M159.42,44.52v33.86h-8.25V58.07l-7.57,20.31h-6.66l-7.62-20.35v20.35h-8.25V44.52h9.74l9.5,23.44l9.41-23.44
			H159.42z"/>
		<path class="st4" d="M191.04,66.9h-18.67c0.13,1.67,0.67,2.95,1.62,3.83s2.12,1.33,3.5,1.33c2.06,0,3.49-0.87,4.29-2.6h8.78
			c-0.45,1.77-1.26,3.36-2.44,4.77c-1.17,1.42-2.64,2.53-4.41,3.33c-1.77,0.8-3.75,1.21-5.93,1.21c-2.64,0-4.98-0.56-7.04-1.69
			c-2.06-1.12-3.67-2.73-4.82-4.82c-1.16-2.09-1.74-4.53-1.74-7.33s0.57-5.24,1.71-7.33c1.14-2.09,2.74-3.7,4.8-4.82
			c2.06-1.12,4.42-1.69,7.09-1.69c2.6,0,4.92,0.55,6.95,1.64c2.03,1.09,3.61,2.65,4.75,4.68c1.14,2.03,1.71,4.39,1.71,7.09
			C191.18,65.26,191.14,66.06,191.04,66.9z M182.74,62.32c0-1.41-0.48-2.54-1.45-3.38c-0.96-0.83-2.17-1.25-3.62-1.25
			c-1.38,0-2.55,0.4-3.5,1.21c-0.95,0.8-1.54,1.95-1.76,3.42H182.74z"/>
		<path class="st5" d="M211.9,78.38l-5.16-7.48l-4.34,7.48h-8.92l8.87-13.75l-9.12-13.17h9.26l5.16,7.43l4.34-7.43h8.92l-9.02,13.55
			l9.26,13.36H211.9z"/>
		<path class="st5" d="M225.4,47.39c-0.92-0.85-1.38-1.91-1.38-3.16c0-1.29,0.46-2.35,1.38-3.21c0.92-0.85,2.1-1.28,3.54-1.28
			c1.41,0,2.58,0.43,3.5,1.28c0.92,0.85,1.38,1.92,1.38,3.21c0,1.25-0.46,2.31-1.38,3.16c-0.92,0.85-2.08,1.28-3.5,1.28
			C227.5,48.67,226.32,48.24,225.4,47.39z M233.05,51.46v26.91h-8.25V51.46H233.05z"/>
		<path class="st6" d="M239.55,57.59c1.14-2.09,2.73-3.7,4.78-4.82c2.04-1.12,4.38-1.69,7.02-1.69c3.38,0,6.2,0.88,8.47,2.65
			c2.27,1.77,3.75,4.26,4.46,7.48h-8.78c-0.74-2.06-2.17-3.09-4.29-3.09c-1.51,0-2.72,0.59-3.62,1.76c-0.9,1.17-1.35,2.85-1.35,5.04
			s0.45,3.87,1.35,5.04c0.9,1.17,2.11,1.76,3.62,1.76c2.12,0,3.55-1.03,4.29-3.09h8.78c-0.71,3.15-2.2,5.63-4.49,7.43
			c-2.28,1.8-5.1,2.7-8.44,2.7c-2.64,0-4.97-0.56-7.02-1.69c-2.04-1.12-3.63-2.73-4.78-4.82c-1.14-2.09-1.71-4.53-1.71-7.33
			S238.41,59.68,239.55,57.59z"/>
		<path class="st6" d="M274.26,77.07c-2.11-1.12-3.76-2.73-4.97-4.82c-1.21-2.09-1.81-4.53-1.81-7.33c0-2.77,0.61-5.2,1.83-7.31
			c1.22-2.11,2.89-3.72,5.02-4.85c2.12-1.12,4.5-1.69,7.14-1.69s5.02,0.56,7.14,1.69c2.12,1.13,3.79,2.74,5.02,4.85
			c1.22,2.11,1.83,4.54,1.83,7.31s-0.62,5.2-1.86,7.31c-1.24,2.11-2.93,3.72-5.06,4.85c-2.14,1.13-4.53,1.69-7.16,1.69
			C278.73,78.76,276.36,78.2,274.26,77.07z M285.4,69.89c1.11-1.16,1.66-2.81,1.66-4.97s-0.54-3.81-1.62-4.97
			c-1.08-1.16-2.4-1.74-3.98-1.74c-1.61,0-2.94,0.57-4,1.71c-1.06,1.14-1.59,2.81-1.59,4.99c0,2.15,0.52,3.81,1.57,4.97
			c1.04,1.16,2.36,1.74,3.93,1.74C282.95,71.62,284.29,71.05,285.4,69.89z"/>
		<path class="st5" d="M322.34,46.64c2.67,1.42,4.73,3.4,6.2,5.96c1.46,2.56,2.19,5.51,2.19,8.85c0,3.31-0.73,6.25-2.19,8.83
			c-1.46,2.57-3.54,4.57-6.22,5.98c-2.69,1.42-5.8,2.12-9.33,2.12H300.3V44.52h12.69C316.56,44.52,319.68,45.23,322.34,46.64z
			 M319.74,68.68c1.74-1.7,2.6-4.12,2.6-7.23c0-3.12-0.87-5.55-2.6-7.28s-4.17-2.6-7.28-2.6h-3.91v19.68h3.91
			C315.57,71.24,318,70.39,319.74,68.68z"/>
		<path class="st5" d="M361.05,66.9h-18.67c0.13,1.67,0.67,2.95,1.62,3.83c0.95,0.88,2.11,1.33,3.5,1.33c2.06,0,3.49-0.87,4.29-2.6
			h8.78c-0.45,1.77-1.26,3.36-2.44,4.77c-1.18,1.42-2.65,2.53-4.41,3.33c-1.77,0.8-3.75,1.21-5.93,1.21c-2.64,0-4.98-0.56-7.04-1.69
			c-2.06-1.12-3.67-2.73-4.82-4.82c-1.16-2.09-1.74-4.53-1.74-7.33s0.57-5.24,1.71-7.33c1.14-2.09,2.74-3.7,4.8-4.82
			c2.06-1.12,4.42-1.69,7.09-1.69c2.61,0,4.92,0.55,6.95,1.64c2.03,1.09,3.61,2.65,4.75,4.68c1.14,2.03,1.71,4.39,1.71,7.09
			C361.19,65.26,361.14,66.06,361.05,66.9z M352.75,62.32c0-1.41-0.48-2.54-1.45-3.38c-0.96-0.83-2.17-1.25-3.62-1.25
			c-1.38,0-2.55,0.4-3.5,1.21c-0.95,0.8-1.54,1.95-1.76,3.42H352.75z"/>
		<path class="st5" d="M378.1,70.66l5.84-19.2h8.78l-9.55,26.91h-10.18l-9.55-26.91h8.83L378.1,70.66z"/>
	</g>
</g>
<g>
</g>
<g>
</g>
<g>
</g>
<g>
</g>
<g>
</g>
<g>
</g>
</svg>
